<svg width="693" height="574" viewBox="0 0 693 574" fill="none" xmlns="http://www.w3.org/2000/svg">
<path d="M670.31 0H22.69C16.6745 0.0072432 10.9074 2.40012 6.65374 6.65375C2.40011 10.9074 0.0072432 16.6745 0 22.69V417.31C0.0072432 423.326 2.40011 429.093 6.65374 433.346C10.9074 437.6 16.6745 439.993 22.69 440H670.31C676.326 439.993 682.093 437.6 686.346 433.346C690.6 429.093 692.993 423.326 693 417.31V22.69C692.993 16.6745 690.6 10.9074 686.346 6.65375C682.093 2.40012 676.326 0.00724584 670.31 0V0ZM691 417.31C691 420.027 690.465 422.717 689.425 425.228C688.385 427.738 686.861 430.019 684.94 431.94C683.019 433.861 680.738 435.385 678.228 436.425C675.717 437.465 673.027 438 670.31 438H22.69C17.2027 438 11.9401 435.82 8.05996 431.94C4.17983 428.06 2 422.797 2 417.31V157.676C2 137.232 6.02666 116.989 13.8501 98.1011C21.6735 79.2137 33.1405 62.0521 47.5963 47.5963C62.0521 33.1405 79.2137 21.6735 98.1011 13.8501C116.989 6.02666 137.232 2 157.676 2H670.31C673.027 2 675.717 2.53516 678.228 3.57493C680.738 4.6147 683.019 6.13872 684.94 8.05996C686.861 9.9812 688.385 12.2621 689.425 14.7723C690.465 17.2825 691 19.973 691 22.69V417.31Z" fill="#4C3CB7"/>
<path d="M631.819 335.731H335.189C332.11 335.727 329.158 334.503 326.981 332.325C324.804 330.148 323.579 327.196 323.575 324.117V227.782C323.579 224.702 324.804 221.75 326.981 219.573C329.158 217.396 332.11 216.171 335.189 216.167H631.819C634.899 216.171 637.851 217.396 640.028 219.573C642.205 221.75 643.43 224.702 643.434 227.782V324.117C643.43 327.196 642.205 330.148 640.028 332.325C637.851 334.503 634.899 335.727 631.819 335.731V335.731Z" fill="#E6E6E6"/>
<path d="M169.303 63.7074C174.075 63.7074 177.944 59.7521 177.944 54.8729C177.944 49.9937 174.075 46.0384 169.303 46.0384C164.53 46.0384 160.661 49.9937 160.661 54.8729C160.661 59.7521 164.53 63.7074 169.303 63.7074Z" fill="#4C3CB7"/>
<path d="M139.449 63.7074C144.221 63.7074 148.09 59.7521 148.09 54.8729C148.09 49.9937 144.221 46.0384 139.449 46.0384C134.676 46.0384 130.807 49.9937 130.807 54.8729C130.807 59.7521 134.676 63.7074 139.449 63.7074Z" fill="#4C3CB7"/>
<path d="M109.595 63.7074C114.367 63.7074 118.236 59.7521 118.236 54.8729C118.236 49.9937 114.367 46.0384 109.595 46.0384C104.822 46.0384 100.953 49.9937 100.953 54.8729C100.953 59.7521 104.822 63.7074 109.595 63.7074Z" fill="#4C3CB7"/>
<path d="M451.673 145.109H330.808C328.813 145.109 326.9 144.317 325.49 142.906C324.08 141.496 323.288 139.583 323.288 137.589C323.288 135.594 324.08 133.682 325.49 132.271C326.9 130.861 328.813 130.069 330.808 130.069H451.673C453.667 130.069 455.58 130.861 456.99 132.271C458.401 133.682 459.193 135.594 459.193 137.589C459.193 139.583 458.401 141.496 456.99 142.906C455.58 144.317 453.667 145.109 451.673 145.109Z" fill="#E6E6E6"/>
<path d="M545.996 170.561H330.808C328.813 170.561 326.9 169.769 325.49 168.359C324.08 166.948 323.288 165.036 323.288 163.041C323.288 161.047 324.08 159.134 325.49 157.724C326.9 156.313 328.813 155.521 330.808 155.521H545.996C547.991 155.521 549.904 156.313 551.314 157.724C552.724 159.134 553.516 161.047 553.516 163.041C553.516 165.036 552.724 166.948 551.314 168.359C549.904 169.769 547.991 170.561 545.996 170.561V170.561Z" fill="#E6E6E6"/>
<path d="M115.21 563.077L125.299 563.076L130.098 524.161L115.208 524.162L115.21 563.077Z" fill="#FFB6B6"/>
<path d="M114.854 573.602L145.879 573.601V573.208C145.879 570.006 144.607 566.934 142.342 564.67C140.078 562.405 137.006 561.133 133.804 561.133H133.803L128.136 556.833L117.562 561.133L114.854 561.134L114.854 573.602Z" fill="#2F2E41"/>
<path d="M56.8892 563.077L66.9782 563.076L71.7772 524.161L56.8872 524.162L56.8892 563.077Z" fill="#FFB6B6"/>
<path d="M56.5332 573.602L87.5581 573.601V573.208C87.5579 570.006 86.2856 566.934 84.021 564.67C81.7564 562.405 78.685 561.133 75.4824 561.133H75.4816L69.8145 556.833L59.241 561.133L56.5327 561.134L56.5332 573.602Z" fill="#2F2E41"/>
<path d="M183.169 304.697L148.794 272.461L158.105 256.864L192.006 295.633C194.018 295.431 196.043 295.852 197.807 296.84C199.571 297.829 200.988 299.336 201.866 301.157C202.744 302.978 203.04 305.026 202.715 307.021C202.389 309.017 201.457 310.864 200.046 312.312C198.634 313.759 196.811 314.738 194.825 315.114C192.838 315.49 190.784 315.246 188.941 314.414C187.098 313.583 185.555 312.204 184.523 310.466C183.49 308.728 183.017 306.714 183.169 304.697V304.697Z" fill="#FFB6B6"/>
<path d="M47.0184 351.63C47.0184 351.63 42.751 390.036 51.997 426.309L48.5146 443.843L56.2644 544.373H75.0756L88.2698 378.656L112.9 544.373H132.657L130.232 453.336L138.784 365.854L135.211 345.94L47.0184 351.63Z" fill="#2F2E41"/>
<path d="M99.0004 202H57.0004L49.937 219.958L51.6414 361.942C51.6414 361.942 134.855 361.942 140.545 356.253L122.765 294.375L116.363 215.429L99.0004 202Z" fill="#6030B1"/>
<path d="M122.053 214.717L151.925 246.723L162.593 253.835L165.438 263.081L153.347 283.707L139.834 278.728L135.567 263.081L110.491 242.581L107.828 209.739L122.053 214.717Z" fill="#2F2E41"/>
<path d="M95.085 203.016L100 224L106.762 298.998L116.008 355.897H142.682L126.676 294.02L120.275 214.362L98.938 201.56L95.085 203.016Z" fill="#2F2E41"/>
<path d="M60.8282 203.016L68.3552 227.164L80.4462 306.822L61.9542 363.72L44.0002 364L39.3282 346.349L49.8632 301.132L35.6382 214.362L56.9752 201.56L60.8282 203.016Z" fill="#2F2E41"/>
<path d="M76.3691 194.889C90.4292 194.889 101.827 183.491 101.827 169.431C101.827 155.371 90.4292 143.973 76.3691 143.973C62.3091 143.973 50.9111 155.371 50.9111 169.431C50.9111 183.491 62.3091 194.889 76.3691 194.889Z" fill="#FFB6B6"/>
<path d="M61.6821 182.033C61.6821 182.033 60.4593 183.888 62.8201 191.757L51.9966 183.068L50.8126 173.525C50.8126 173.525 45.304 153.851 64.1907 144.408C64.1907 144.408 80.7165 135.751 96.4554 148.342C96.4554 148.342 102.751 149.129 101.964 149.916C101.177 150.703 97.2424 153.064 101.177 152.277C105.112 151.49 107.473 147.556 107.473 149.916C107.473 152.277 100.39 157.786 100.39 157.786C100.39 157.786 103.144 165.262 84.2577 155.031C82.2376 160.082 78.3458 164.157 73.394 166.408L74 167L69.3058 177.066C69.3058 177.066 64.4364 170.623 61.6821 182.033Z" fill="#2F2E41"/>
<path d="M63.6804 380.688L149.213 187.832C150.103 185.831 151.75 184.264 153.794 183.477C155.837 182.689 158.11 182.744 160.113 183.629L222.746 211.407C224.747 212.297 226.313 213.945 227.101 215.988C227.889 218.032 227.834 220.304 226.948 222.307L141.416 415.164C140.526 417.165 138.878 418.731 136.835 419.519C134.791 420.307 132.519 420.252 130.516 419.366L67.8826 391.588C65.8816 390.698 64.3155 389.051 63.5277 387.007C62.7399 384.964 62.7948 382.691 63.6804 380.688Z" fill="white"/>
<path d="M63.6804 380.688L149.213 187.832C150.103 185.831 151.75 184.264 153.794 183.477C155.837 182.689 158.11 182.744 160.113 183.629L222.746 211.407C224.747 212.297 226.313 213.945 227.101 215.988C227.889 218.032 227.834 220.304 226.948 222.307L141.416 415.164C140.526 417.165 138.878 418.731 136.835 419.519C134.791 420.307 132.519 420.252 130.516 419.366L67.8826 391.588C65.8816 390.698 64.3155 389.051 63.5277 387.007C62.7399 384.964 62.7948 382.691 63.6804 380.688ZM225.619 221.718C226.349 220.068 226.394 218.195 225.745 216.511C225.096 214.827 223.805 213.47 222.157 212.736L159.523 184.958C157.873 184.228 156 184.183 154.316 184.832C152.633 185.481 151.275 186.772 150.541 188.421L65.0092 381.278C64.2794 382.928 64.2341 384.801 64.8833 386.485C65.5325 388.169 66.823 389.526 68.4719 390.26L131.105 418.038C132.756 418.767 134.628 418.813 136.312 418.163C137.996 417.514 139.354 416.224 140.087 414.575L225.619 221.718Z" fill="#3F3D56"/>
<path d="M157.175 301.831C174.851 301.831 189.181 287.502 189.181 269.826C189.181 252.15 174.851 237.82 157.175 237.82C139.499 237.82 125.17 252.15 125.17 269.826C125.17 287.502 139.499 301.831 157.175 301.831Z" fill="#3F3D56"/>
<path d="M141.605 336.94C159.281 336.94 173.61 322.61 173.61 304.934C173.61 287.258 159.281 272.929 141.605 272.929C123.928 272.929 109.599 287.258 109.599 304.934C109.599 322.61 123.928 336.94 141.605 336.94Z" fill="#4C3CB7"/>
<path d="M113.058 369.3C109.216 367.596 105.747 365.152 102.85 362.107C99.9521 359.063 97.6826 355.477 96.1707 351.556C94.6588 347.634 93.9342 343.453 94.0381 339.251C94.1421 335.049 95.0726 330.909 96.7766 327.067C98.4806 323.225 100.925 319.756 103.969 316.859C107.014 313.961 110.599 311.692 114.521 310.18C118.443 308.668 122.624 307.943 126.825 308.047C131.027 308.151 135.167 309.082 139.009 310.786C155.168 317.952 172.886 354.707 155.291 353.018C135.142 351.084 129.216 376.466 113.058 369.3Z" fill="#6030B1"/>
<path d="M70.0094 350.313L45 288L65 292L81.691 345.435C83.6213 346.037 85.3197 347.218 86.5557 348.818C87.7916 350.418 88.5052 352.36 88.5996 354.38C88.6939 356.399 88.1645 358.399 87.0832 360.108C86.0019 361.816 84.4211 363.151 82.5553 363.93C80.6895 364.709 78.6291 364.895 76.6539 364.463C74.6787 364.031 72.8842 363.002 71.5142 361.515C70.1441 360.028 69.2648 358.155 68.9956 356.151C68.7264 354.147 69.0803 352.109 70.0094 350.313L70.0094 350.313Z" fill="#FFB6B6"/>
<path d="M29.5149 229.563C28.0591 245.626 31.0744 259.73 36.4822 272.785L37.1768 284.397L42.7364 292.314L66.4436 295.409L70.7964 281.682L61.0523 268.716L60.2331 236.338L35.9213 214.097L29.5149 229.563Z" fill="#2F2E41"/>
</svg>
