<svg width="809" height="589" viewBox="0 0 809 589" fill="none" xmlns="http://www.w3.org/2000/svg">
<g clip-path="url(#clip0_270_405)">
<path d="M329.297 319.245C328.038 319.303 326.792 318.972 325.727 318.298C324.662 317.624 323.83 316.639 323.344 315.477C322.858 314.314 322.741 313.03 323.009 311.799C323.277 310.567 323.917 309.448 324.843 308.593C324.998 307.977 325.109 307.534 325.264 306.918C325.208 306.784 325.152 306.65 325.096 306.517C319.438 293.024 300.262 293.117 294.652 306.63C289.672 318.622 283.333 330.635 281.772 343.316C281.084 348.921 281.374 354.602 282.629 360.108C270.934 334.597 264.861 306.868 264.821 278.804C264.819 271.761 265.21 264.724 265.993 257.726C266.641 251.988 267.539 246.291 268.687 240.635C274.956 209.947 288.414 181.184 307.958 156.707C317.417 151.546 325.066 143.61 329.875 133.967C331.618 130.501 332.849 126.801 333.531 122.982C332.464 123.122 329.508 106.871 330.313 105.874C328.826 103.618 326.164 102.496 324.54 100.294C316.463 89.3439 305.336 91.2559 299.526 106.137C287.116 112.4 286.996 122.788 294.611 132.778C299.455 139.134 300.121 147.734 304.372 154.538C303.934 155.098 303.479 155.64 303.042 156.2C295.048 166.479 288.081 177.517 282.24 189.156C283.892 176.248 281.453 160.697 277.294 150.673C272.559 139.251 263.685 129.632 255.87 119.758C246.483 107.897 227.234 113.073 225.581 128.108C225.565 128.254 225.549 128.399 225.534 128.545C226.694 129.199 227.831 129.894 228.942 130.63C230.339 131.563 231.421 132.896 232.047 134.455C232.673 136.013 232.814 137.725 232.45 139.365C232.087 141.005 231.237 142.497 230.011 143.645C228.785 144.793 227.241 145.545 225.581 145.801L225.411 145.827C225.825 150.01 226.556 154.156 227.598 158.229C217.572 197 239.217 211.121 270.122 211.756C270.804 212.105 271.469 212.455 272.151 212.788C266.283 229.418 262.602 246.741 261.201 264.32C260.407 274.692 260.454 285.11 261.341 295.474C261.323 295.351 261.306 295.229 261.288 295.107C259.049 283.582 252.901 273.184 243.883 265.667C230.489 254.664 211.566 250.613 197.116 241.769C190.16 237.511 181.247 243.013 182.461 251.077C182.48 251.206 182.5 251.335 182.52 251.463C184.674 252.341 186.771 253.351 188.8 254.489C189.961 255.144 191.097 255.839 192.209 256.574C193.605 257.508 194.687 258.841 195.313 260.4C195.939 261.958 196.08 263.67 195.716 265.31C195.353 266.949 194.503 268.441 193.277 269.59C192.051 270.738 190.507 271.49 188.847 271.746L188.677 271.772C188.555 271.789 188.45 271.807 188.328 271.824C192.008 280.612 197.174 288.701 203.598 295.736C209.867 329.582 236.791 332.793 265.591 322.937H265.609C268.769 336.668 273.347 350.034 279.27 362.819H328.074C328.249 362.277 328.406 361.717 328.564 361.175C324.046 361.459 319.511 361.189 315.059 360.371C318.68 355.928 322.301 351.449 325.922 347.006C326.003 346.923 326.079 346.836 326.15 346.744C327.986 344.47 329.841 342.213 331.677 339.94L331.678 339.937C331.776 332.966 330.976 326.012 329.298 319.246L329.297 319.245Z" fill="#F2F2F2"/>
<path d="M500.696 343.932C500.15 343.957 499.61 343.814 499.149 343.521C498.687 343.229 498.326 342.802 498.116 342.298C497.905 341.794 497.854 341.238 497.97 340.704C498.087 340.17 498.364 339.685 498.765 339.314L498.948 338.589C498.924 338.531 498.9 338.473 498.875 338.414C498.326 337.116 497.404 336.009 496.228 335.232C495.051 334.456 493.671 334.044 492.261 334.05C490.851 334.055 489.474 334.477 488.303 335.262C487.132 336.047 486.219 337.161 485.679 338.463C483.52 343.662 480.772 348.869 480.096 354.365C479.798 356.795 479.923 359.258 480.467 361.644C475.398 350.586 472.765 338.567 472.749 326.402C472.747 323.35 472.917 320.299 473.257 317.266C473.537 314.779 473.926 312.309 474.424 309.858C477.141 296.556 482.975 284.088 491.446 273.478C495.546 271.241 498.862 267.801 500.947 263.621C501.702 262.119 502.236 260.515 502.531 258.86C502.069 258.92 500.788 251.876 501.136 251.444C500.492 250.466 499.338 249.98 498.634 249.026C495.133 244.279 490.31 245.108 487.792 251.558C482.412 254.273 482.36 258.775 485.661 263.106C487.761 265.861 488.049 269.589 489.892 272.538C489.702 272.781 489.505 273.016 489.316 273.258C485.851 277.714 482.83 282.499 480.299 287.543C480.914 281.892 480.18 276.175 478.155 270.862C476.102 265.912 472.256 261.742 468.868 257.462C464.8 252.321 456.456 254.565 455.739 261.082C455.732 261.145 455.725 261.208 455.719 261.271C456.222 261.555 456.714 261.856 457.196 262.175C457.802 262.579 458.271 263.157 458.542 263.833C458.813 264.508 458.874 265.25 458.717 265.961C458.559 266.672 458.191 267.318 457.66 267.816C457.128 268.314 456.459 268.64 455.739 268.751L455.666 268.762C455.845 270.575 456.162 272.372 456.614 274.138C452.268 290.943 461.65 297.064 475.046 297.339C475.342 297.491 475.63 297.643 475.925 297.787C473.382 304.995 471.786 312.504 471.179 320.124C470.835 324.62 470.855 329.136 471.24 333.628L471.217 333.469C470.246 328.473 467.582 323.966 463.673 320.708C457.867 315.939 449.664 314.182 443.401 310.349C442.735 309.922 441.961 309.693 441.17 309.691C440.379 309.69 439.604 309.914 438.936 310.338C438.269 310.762 437.736 311.368 437.402 312.085C437.067 312.802 436.945 313.6 437.049 314.384C437.057 314.44 437.066 314.495 437.074 314.551C438.008 314.931 438.917 315.369 439.796 315.863C440.299 316.147 440.792 316.448 441.274 316.767C441.879 317.171 442.348 317.749 442.62 318.425C442.891 319.1 442.952 319.842 442.794 320.553C442.637 321.264 442.268 321.91 441.737 322.408C441.206 322.906 440.536 323.232 439.817 323.343L439.743 323.354C439.69 323.362 439.645 323.369 439.592 323.377C441.187 327.186 443.426 330.692 446.211 333.742C448.928 348.412 460.598 349.804 473.082 345.532H473.09C474.459 351.484 476.444 357.278 479.012 362.82H500.166C500.242 362.585 500.31 362.342 500.378 362.107C498.42 362.23 496.454 362.113 494.525 361.758C496.094 359.832 497.664 357.891 499.233 355.965C499.268 355.929 499.301 355.891 499.332 355.851C500.128 354.866 500.932 353.888 501.728 352.902L501.728 352.901C501.771 349.879 501.424 346.865 500.697 343.932L500.696 343.932Z" fill="#F2F2F2"/>
<path d="M629.502 376.883C630.478 375.505 630.877 373.802 630.616 372.134C630.354 370.466 629.452 368.967 628.102 367.954C627.824 367.752 627.53 367.574 627.223 367.421L630.128 323.305L615.348 325.867L618.643 370.749C618.107 372.072 618.024 373.535 618.407 374.91C618.79 376.285 619.617 377.494 620.759 378.349C621.414 378.83 622.157 379.176 622.946 379.37C623.735 379.563 624.554 379.599 625.357 379.476C626.159 379.352 626.93 379.072 627.624 378.651C628.319 378.23 628.923 377.676 629.404 377.021C629.437 376.976 629.47 376.93 629.502 376.883Z" fill="#D8AE7D"/>
<path d="M721.93 577.344L712.029 577.343L707.319 539.153L721.932 539.154L721.93 577.344Z" fill="#D8AE7D"/>
<path d="M722.278 587.673L691.831 587.672V587.287C691.832 584.144 693.08 581.13 695.303 578.907C697.525 576.685 700.539 575.436 703.682 575.436H703.683L709.244 571.217L719.621 575.437L722.279 575.437L722.278 587.673Z" fill="#2F2E41"/>
<path d="M700.003 562.585L691.544 567.73L667.673 537.549L680.158 529.956L700.003 562.585Z" fill="#D8AE7D"/>
<path d="M705.669 571.229L679.655 587.05L679.455 586.721C677.822 584.036 677.322 580.812 678.066 577.758C678.81 574.704 680.736 572.071 683.421 570.438L683.422 570.438L685.981 563.943L697.039 562.155L699.31 560.774L705.669 571.229Z" fill="#2F2E41"/>
<path d="M567.73 47.3106H1C0.734784 47.3106 0.480429 47.2053 0.292892 47.0177C0.105356 46.8302 0 46.5758 0 46.3106C0 46.0454 0.105356 45.791 0.292892 45.6035C0.480429 45.416 0.734784 45.3106 1 45.3106H567.73C567.996 45.3106 568.25 45.416 568.438 45.6035C568.625 45.791 568.73 46.0454 568.73 46.3106C568.73 46.5758 568.625 46.8302 568.438 47.0177C568.25 47.2053 567.996 47.3106 567.73 47.3106Z" fill="#E6E6E6"/>
<path d="M450.656 183.467H115.848C113.105 183.467 110.473 184.556 108.534 186.496C106.594 188.436 105.504 191.067 105.504 193.811C105.504 196.554 106.594 199.185 108.534 201.125C110.473 203.065 113.105 204.155 115.848 204.155H450.656C452.014 204.155 453.359 203.887 454.614 203.367C455.869 202.847 457.01 202.085 457.97 201.125C458.931 200.164 459.693 199.024 460.213 197.769C460.732 196.514 461 195.169 461 193.811C461 192.452 460.732 191.107 460.213 189.852C459.693 188.597 458.931 187.457 457.97 186.496C457.01 185.536 455.869 184.774 454.614 184.254C453.359 183.734 452.014 183.467 450.656 183.467V183.467Z" fill="#3F3D56"/>
<path d="M340.656 125.467H236.848C234.105 125.467 231.473 126.556 229.534 128.496C227.594 130.436 226.504 133.067 226.504 135.811C226.504 138.554 227.594 141.185 229.534 143.125C231.473 145.065 234.105 146.155 236.848 146.155H340.656C343.399 146.155 346.03 145.065 347.97 143.125C349.91 141.185 351 138.554 351 135.811C351 133.067 349.91 130.436 347.97 128.496C346.03 126.556 343.399 125.467 340.656 125.467Z" fill="#3F3D56"/>
<path d="M29.3548 17.2901C34.0253 17.2901 37.8114 13.4196 37.8114 8.64507C37.8114 3.87053 34.0253 0 29.3548 0C24.6843 0 20.8982 3.87053 20.8982 8.64507C20.8982 13.4196 24.6843 17.2901 29.3548 17.2901Z" fill="#E6E6E6"/>
<path d="M58.5687 17.2901C63.2391 17.2901 67.0253 13.4196 67.0253 8.64507C67.0253 3.87053 63.2391 0 58.5687 0C53.8982 0 50.1121 3.87053 50.1121 8.64507C50.1121 13.4196 53.8982 17.2901 58.5687 17.2901Z" fill="#E6E6E6"/>
<path d="M87.7823 17.2901C92.4528 17.2901 96.2389 13.4196 96.2389 8.64507C96.2389 3.87053 92.4528 0 87.7823 0C83.1118 0 79.3257 3.87053 79.3257 8.64507C79.3257 13.4196 83.1118 17.2901 87.7823 17.2901Z" fill="#E6E6E6"/>
<path d="M121.094 15.4779C120.961 15.4781 120.829 15.4515 120.706 15.3999C120.583 15.3482 120.472 15.2725 120.379 15.1771L114.673 9.34409C114.49 9.15729 114.388 8.90628 114.388 8.64487C114.388 8.38346 114.49 8.13245 114.673 7.94565L120.379 2.11313C120.565 1.92655 120.817 1.82098 121.081 1.81935C121.344 1.81773 121.598 1.92018 121.786 2.10445C121.975 2.28872 122.083 2.53992 122.087 2.80341C122.091 3.0669 121.991 3.32139 121.809 3.51157L116.787 8.64487L121.809 13.7787C121.946 13.9194 122.039 14.0976 122.076 14.2909C122.113 14.4843 122.092 14.6842 122.016 14.8657C121.939 15.0471 121.811 15.202 121.647 15.3109C121.483 15.4198 121.291 15.4779 121.094 15.4779V15.4779Z" fill="#E6E6E6"/>
<path d="M130.682 15.4779C130.485 15.4779 130.293 15.4197 130.129 15.3108C129.965 15.2019 129.837 15.0471 129.76 14.8656C129.684 14.6842 129.663 14.4843 129.7 14.2909C129.737 14.0976 129.83 13.9194 129.967 13.7786L134.989 8.64486L129.967 3.51156C129.874 3.418 129.8 3.30686 129.75 3.18459C129.7 3.06232 129.674 2.93132 129.675 2.79918C129.676 2.66704 129.703 2.53638 129.755 2.41474C129.806 2.29309 129.882 2.18289 129.976 2.09049C130.07 1.99809 130.182 1.92531 130.305 1.87639C130.428 1.82748 130.559 1.80338 130.691 1.80549C130.823 1.80759 130.954 1.83586 131.075 1.88866C131.196 1.94146 131.305 2.01774 131.397 2.1131L137.103 7.94564C137.285 8.13244 137.388 8.38345 137.388 8.64486C137.388 8.90627 137.285 9.15727 137.103 9.34408L131.397 15.1771C131.304 15.2724 131.193 15.3482 131.07 15.3998C130.947 15.4515 130.815 15.478 130.682 15.4779V15.4779Z" fill="#E6E6E6"/>
<path d="M517.192 1.00092H506.582C506.294 1.00083 506.01 1.05742 505.744 1.16745C505.478 1.27748 505.237 1.43879 505.033 1.64217C504.83 1.84554 504.668 2.087 504.558 2.35274C504.448 2.61848 504.392 2.9033 504.392 3.19092V13.8109C504.392 14.0985 504.448 14.3834 504.558 14.6491C504.668 14.9148 504.83 15.1563 505.033 15.3597C505.237 15.5631 505.478 15.7244 505.744 15.8344C506.01 15.9444 506.294 16.001 506.582 16.0009H517.192C517.774 16.0015 518.332 15.7712 518.745 15.3607C519.157 14.9502 519.39 14.3928 519.392 13.8109V3.19092C519.39 2.60901 519.157 2.05167 518.745 1.64113C518.332 1.23059 517.774 1.00036 517.192 1.00092V1.00092Z" fill="#E6E6E6"/>
<path d="M491.192 1.00092H480.582C480.294 1.00083 480.01 1.05742 479.744 1.16745C479.478 1.27748 479.237 1.43879 479.033 1.64217C478.83 1.84554 478.669 2.087 478.559 2.35274C478.449 2.61848 478.392 2.9033 478.392 3.19092V13.8109C478.392 14.0985 478.449 14.3834 478.559 14.6491C478.669 14.9148 478.83 15.1563 479.033 15.3597C479.237 15.5631 479.478 15.7244 479.744 15.8344C480.01 15.9444 480.294 16.001 480.582 16.0009H491.192C491.774 16.0015 492.332 15.7712 492.745 15.3607C493.157 14.9502 493.39 14.3928 493.392 13.8109V3.19092C493.39 2.60901 493.157 2.05167 492.745 1.64113C492.332 1.23059 491.774 1.00036 491.192 1.00092V1.00092Z" fill="#E6E6E6"/>
<path d="M541.692 1.50092H531.082C530.794 1.50083 530.51 1.55742 530.244 1.66745C529.978 1.77748 529.737 1.93879 529.533 2.14217C529.33 2.34554 529.168 2.587 529.058 2.85274C528.948 3.11848 528.892 3.4033 528.892 3.69092V14.3109C528.892 14.5985 528.948 14.8834 529.058 15.1491C529.168 15.4148 529.33 15.6563 529.533 15.8597C529.737 16.0631 529.978 16.2244 530.244 16.3344C530.51 16.4444 530.794 16.501 531.082 16.5009H541.692C542.274 16.5015 542.832 16.2712 543.245 15.8607C543.657 15.4502 543.89 14.8928 543.892 14.3109V3.69092C543.89 3.10901 543.657 2.55167 543.245 2.14113C542.832 1.73059 542.274 1.50036 541.692 1.50092V1.50092Z" fill="#E6E6E6"/>
<path d="M326.77 5.54089H241.96C241.252 5.54089 240.573 5.8222 240.072 6.32292C239.572 6.82364 239.29 7.50276 239.29 8.21089C239.29 8.91902 239.572 9.59815 240.072 10.0989C240.573 10.5996 241.252 10.8809 241.96 10.8809H326.77C327.478 10.8809 328.158 10.5996 328.658 10.0989C329.159 9.59815 329.44 8.91902 329.44 8.21089C329.44 7.50276 329.159 6.82364 328.658 6.32292C328.158 5.8222 327.478 5.54089 326.77 5.54089V5.54089Z" fill="#E6E6E6"/>
<path d="M264.571 259.311H180.571C176.46 259.311 172.517 260.944 169.611 263.85C166.704 266.757 165.071 270.7 165.071 274.811C165.071 278.921 166.704 282.864 169.611 285.771C172.517 288.678 176.46 290.311 180.571 290.311H264.571C268.682 290.311 272.624 288.678 275.531 285.771C278.438 282.864 280.071 278.921 280.071 274.811C280.071 270.7 278.438 266.757 275.531 263.85C272.624 260.944 268.682 259.311 264.571 259.311V259.311Z" fill="#6030B1"/>
<path d="M405.571 259.311H321.571C317.46 259.311 313.517 260.944 310.611 263.85C307.704 266.757 306.071 270.7 306.071 274.811C306.071 278.921 307.704 282.864 310.611 285.771C313.517 288.678 317.46 290.311 321.571 290.311H405.571C409.682 290.311 413.624 288.678 416.531 285.771C419.438 282.864 421.071 278.921 421.071 274.811C421.071 270.7 419.438 266.757 416.531 263.85C413.624 260.944 409.682 259.311 405.571 259.311V259.311Z" fill="white"/>
<path d="M405.571 291.311H321.571C317.195 291.311 312.998 289.572 309.904 286.478C306.809 283.383 305.071 279.187 305.071 274.811C305.071 270.434 306.809 266.238 309.904 263.143C312.998 260.049 317.195 258.311 321.571 258.311H405.571C409.947 258.311 414.144 260.049 417.238 263.143C420.332 266.238 422.071 270.434 422.071 274.811C422.071 279.187 420.332 283.383 417.238 286.478C414.144 289.572 409.947 291.311 405.571 291.311V291.311ZM321.571 260.311C317.725 260.311 314.037 261.838 311.318 264.557C308.598 267.277 307.071 270.965 307.071 274.811C307.071 278.656 308.598 282.344 311.318 285.064C314.037 287.783 317.725 289.311 321.571 289.311H405.571C409.416 289.311 413.105 287.783 415.824 285.064C418.543 282.344 420.071 278.656 420.071 274.811C420.071 270.965 418.543 267.277 415.824 264.557C413.105 261.838 409.416 260.311 405.571 260.311H321.571Z" fill="#6030B1"/>
<path d="M567.73 364.57H1C0.734784 364.57 0.480429 364.465 0.292892 364.277C0.105356 364.09 0 363.836 0 363.57C0 363.305 0.105356 363.051 0.292892 362.863C0.480429 362.676 0.734784 362.57 1 362.57H567.73C567.996 362.57 568.25 362.676 568.438 362.863C568.625 363.051 568.73 363.305 568.73 363.57C568.73 363.836 568.625 364.09 568.438 364.277C568.25 364.465 567.996 364.57 567.73 364.57Z" fill="#E6E6E6"/>
<path d="M24 193.311C29.5228 193.311 34 188.833 34 183.311C34 177.788 29.5228 173.311 24 173.311C18.4772 173.311 14 177.788 14 183.311C14 188.833 18.4772 193.311 24 193.311Z" fill="#E6E6E6"/>
<path d="M506 123.311C511.523 123.311 516 118.833 516 113.311C516 107.788 511.523 103.311 506 103.311C500.477 103.311 496 107.788 496 113.311C496 118.833 500.477 123.311 506 123.311Z" fill="#E6E6E6"/>
<path d="M118 330.311C123.523 330.311 128 325.833 128 320.311C128 314.788 123.523 310.311 118 310.311C112.477 310.311 108 314.788 108 320.311C108 325.833 112.477 330.311 118 330.311Z" fill="#E6E6E6"/>
<path d="M24.0471 231.795C35.1535 222.077 49.0737 216.162 63.7781 214.911C74.9145 214.063 86.0888 215.96 96.3221 220.434C106.555 224.908 115.535 231.824 122.475 240.575C123.657 242.075 121.548 244.212 120.354 242.696C111.895 231.993 100.335 224.166 87.2566 220.285C76.7472 217.261 65.6467 216.925 54.9734 219.307C44.3 221.688 34.3956 226.712 26.1684 233.916C24.7241 235.187 22.5943 233.074 24.0471 231.795H24.0471Z" fill="#3F3D56"/>
<path d="M138.343 228.691L147.186 252.875C147.245 253.098 147.253 253.331 147.209 253.557C147.164 253.783 147.069 253.996 146.929 254.18C146.789 254.363 146.609 254.512 146.403 254.615C146.197 254.718 145.97 254.772 145.739 254.774L117.449 252.757C115.534 252.621 115.519 249.62 117.449 249.757L145.739 251.774L144.293 253.672L135.45 229.489C134.786 227.673 137.684 226.89 138.343 228.691V228.691Z" fill="#3F3D56"/>
<path d="M720 358.311C720 358.311 728.184 374.573 725 382.311C721.815 390.048 727.612 449.994 724.306 452.652C721 455.311 718.873 453.183 723.436 457.747C728 462.311 730 457.311 729 464.311C728 471.311 722 560.311 722 560.311L708.306 560.652C708.306 560.652 691 517.311 694 487.311L676.87 404.693C676.87 404.693 674.401 419.413 674.2 422.862C674 426.311 672 427.311 671 427.311C665.995 427.311 667.535 426.421 668.268 431.366C669 436.311 660.042 475.891 660.042 475.891L690 545.311L680 555.311L628.18 479.512L618.245 402.452C618.245 402.452 615.491 394.72 618.245 394.515C621 394.311 622.559 395.185 621.779 392.248C621 389.311 637 340.311 637 340.311L720 358.311Z" fill="#2F2E41"/>
<path d="M725 360.311C722.69 365.661 714.82 360.761 697 362.311C694.94 362.491 692.91 362.581 690.89 362.601C678.94 362.731 667.77 360.461 658.73 359.791C652.22 359.301 646.81 359.641 643 362.311C633 369.311 629.04 347.651 629.04 347.651C628.614 341.923 629.999 336.207 633 331.311C638 323.311 643.12 304.301 636 297.311C628.88 290.321 628.12 279.321 631 276.311C633.88 273.301 643.34 213.111 642 203.311C640.94 195.581 652.88 193.101 657.96 192.401C659.32 192.211 660.19 192.151 660.19 192.151L672 194.311L689 197.311L702.69 197.571C702.69 197.571 702.88 197.661 703.24 197.821C709.468 200.767 715.413 204.278 721 208.311C729.08 214.401 723.11 305.301 723.11 305.301C723.11 305.301 722 332.371 728 338.311C734 344.251 727.31 354.961 725 360.311Z" fill="#3F3D56"/>
<path d="M666 198.126L643 199.126C643 199.126 612 261.126 616 265.126C620 269.126 624.086 266.855 619.043 271.99C614 277.126 609 275.126 612 279.126C615 283.126 619 278.625 615 284.375C611 290.126 613.876 336.311 613.876 336.311H629.694C629.694 336.311 640.876 297.512 639.938 292.819C639 288.126 638.876 284.115 639.938 282.62C641 281.126 666 198.126 666 198.126Z" fill="#3F3D56"/>
<path d="M680.173 177.76C692.907 177.76 703.229 167.438 703.229 154.704C703.229 141.971 692.907 131.649 680.173 131.649C667.44 131.649 657.118 141.971 657.118 154.704C657.118 167.438 667.44 177.76 680.173 177.76Z" fill="#D8AE7D"/>
<path d="M698.14 174.561L689 176.311C689 176.311 697.5 162.591 697 156.311C696.5 150.031 689.66 147.781 689.66 147.781C689.66 147.781 685.87 148.601 681.88 149.061C681.402 147.715 680.782 146.424 680.03 145.211C679.882 146.778 679.188 148.243 678.07 149.351C676.608 149.476 675.135 149.306 673.74 148.851C672.16 148.131 672.19 146.881 672.71 145.711C667.56 146.136 662.535 147.516 657.89 149.781C657.66 146.711 657.777 143.624 658.24 140.581C658.46 140.521 658.68 140.451 658.9 140.381C660.263 139.949 661.577 139.376 662.82 138.671C661.436 138.487 660.144 137.879 659.12 136.931C659.96 134.471 661.3 132.341 663.41 131.301C665.446 130.305 667.672 129.758 669.937 129.698C672.202 129.638 674.454 130.065 676.54 130.951C676.54 130.951 671.65 127.381 673.45 125.921C673.57 126.041 673.69 126.151 673.82 126.261C673.99 126.401 674.18 126.551 674.36 126.691C675.47 127.591 677.13 126.321 677.35 124.961C677.374 124.789 677.407 124.619 677.45 124.451C677.48 124.311 677.52 124.171 677.56 124.041C677.594 123.925 677.634 123.812 677.68 123.701C681.01 122.901 691.08 126.151 694.95 133.311C694.95 133.311 722 146.311 698.14 174.561Z" fill="#3F3D56"/>
<path d="M696.466 372.548C696.224 370.878 696.644 369.178 697.636 367.812C698.627 366.446 700.113 365.521 701.776 365.234C702.115 365.181 702.458 365.156 702.801 365.16L720.288 324.553L732.283 333.559L708.928 372.027C708.803 373.449 708.211 374.789 707.245 375.84C706.278 376.89 704.991 377.59 703.585 377.832C702.783 377.962 701.964 377.933 701.173 377.746C700.383 377.559 699.637 377.218 698.978 376.743C698.32 376.268 697.761 375.668 697.334 374.977C696.908 374.286 696.621 373.518 696.491 372.716C696.482 372.66 696.474 372.604 696.466 372.548Z" fill="#D8AE7D"/>
<path d="M698.5 208.126L721.5 209.126C721.5 209.126 755.5 267.126 751.5 271.126C747.5 275.126 743.414 272.855 748.457 277.99C753.5 283.126 758.5 281.126 755.5 285.126C752.5 289.126 748.5 284.625 752.5 290.375C756.5 296.126 724 350.311 724 350.311L710 343.311C710 343.311 723.624 307.512 724.562 302.819C725.5 298.126 725.624 294.115 724.562 292.62C723.5 291.126 698.5 208.126 698.5 208.126Z" fill="#3F3D56"/>
<path d="M703.24 197.821L671 272.311L657.96 192.401C659.32 192.211 660.19 192.151 660.19 192.151L665.74 181.371L697.53 183.021L702.69 197.571C702.69 197.571 702.88 197.661 703.24 197.821Z" fill="#6030B1"/>
<path d="M690.89 363.601C678.94 363.731 667.77 361.461 658.73 360.791L670 304.311L690.89 363.601Z" fill="#6030B1"/>
<path d="M552.787 587.576C552.787 587.732 552.817 587.887 552.877 588.032C552.936 588.177 553.024 588.308 553.135 588.419C553.245 588.529 553.377 588.617 553.521 588.676C553.666 588.736 553.821 588.766 553.977 588.766H807.267C807.583 588.766 807.885 588.641 808.109 588.417C808.332 588.194 808.457 587.892 808.457 587.576C808.457 587.26 808.332 586.958 808.109 586.735C807.885 586.511 807.583 586.386 807.267 586.386H553.977C553.821 586.386 553.666 586.416 553.521 586.476C553.377 586.535 553.245 586.623 553.135 586.733C553.024 586.844 552.936 586.975 552.877 587.12C552.817 587.265 552.787 587.42 552.787 587.576V587.576Z" fill="#CCCCCC"/>
</g>
<defs>
<clipPath id="clip0_270_405">
<rect width="808.457" height="588.766" fill="white"/>
</clipPath>
</defs>
</svg>
