<svg width="100" height="64" viewBox="0 0 100 64" fill="none" xmlns="http://www.w3.org/2000/svg">
<path fill-rule="evenodd" clip-rule="evenodd" d="M42.9254 19.8663C41.4204 20.0839 39.9672 20.6988 39.4478 21.3382C39.2189 21.6199 38.762 22.3491 38.4326 22.9582C37.8614 24.0144 37.8485 24.0964 38.1521 24.7172L38.4705 25.3683L39.011 24.4822C39.5058 23.671 39.5266 23.5497 39.2579 23.0466C38.9864 22.5382 38.9989 22.4791 39.4251 22.2582C40.2341 21.8389 41.9544 21.4769 43.1371 21.4769C46.1908 21.4769 48.5614 22.8449 49.776 25.3079C50.2327 26.234 50.3242 26.703 50.3273 28.1343C50.3292 29.0781 50.2635 30.1683 50.181 30.557L50.0313 31.2636L50.4454 30.5089C52.1967 27.3179 51.5274 22.9604 49.0089 21.1579C47.4615 20.0506 45.1082 19.5509 42.9254 19.8663ZM41.8781 25.0422C41.7427 25.6733 41.1775 27.5273 40.622 29.1621C39.5202 32.4044 39.2606 33.7647 39.5663 34.6956C39.7208 35.1668 39.7689 35.2058 39.7829 34.8711C39.7927 34.6345 40.3269 32.8629 40.97 30.9343C41.8975 28.1523 42.1621 27.0627 42.2501 25.6612C42.311 24.6897 42.3076 23.8947 42.2426 23.8947C42.1773 23.8947 42.0134 24.4111 41.8781 25.0422ZM52.3118 29.4528L53.0416 30.1976L56.0651 30.1074C57.728 30.0577 59.3202 30.0739 59.6036 30.1433C60.1134 30.2683 60.1094 30.278 59.1916 31.1404C57.3245 32.8946 51.3491 36.3432 49.3369 36.8278C48.7902 36.9594 48.3012 37.1322 48.2503 37.2122C48.1994 37.2919 48.4643 37.6448 48.8387 37.9963L49.52 38.6355L52.3233 37.8174C57.5929 36.28 61.6504 35.3619 62.8525 35.4352L63.968 35.5032L63.4228 34.9526C62.6485 34.1711 61.6754 33.9145 60.0848 34.0722L58.7416 34.2055L59.8507 33.3303C60.4606 32.8488 61.2723 32.058 61.6545 31.5729L62.3493 30.691L61.3941 29.766L60.4391 28.8409L56.0104 28.7745L51.582 28.7079L52.3118 29.4528ZM37.7157 30.3175C35.6166 30.8489 34.5569 31.5537 33.5602 33.0818C32.5297 34.6615 32.3673 35.3035 32.7655 36.2237C33.4676 37.8463 35.1261 39.0774 37.106 39.4456C39.7923 39.9453 43.511 38.5531 46.352 35.9843C48.7205 33.8427 49.2007 33.0539 47.1773 34.6288C43.7512 37.2953 40.402 38.3488 37.6788 37.6163C35.9337 37.1472 33.9203 35.2793 33.6319 33.8619C33.5091 33.2584 33.5535 33.2071 34.6251 32.7163C35.2421 32.4337 36.3893 32.0768 37.1746 31.9231C38.5172 31.6603 38.6332 31.5933 39.1186 30.7974C39.711 29.8263 39.6878 29.8185 37.7157 30.3175Z" fill="#6030B1"/>
<path fill-rule="evenodd" clip-rule="evenodd" d="M33.5578 43.1822C32.3132 43.3744 30.9822 43.9738 30.4704 44.5724C30.2971 44.7748 30.0258 45.2045 29.8673 45.5272C29.6044 46.0621 29.579 46.1897 29.579 46.9746C29.579 47.7819 29.5981 47.8705 29.8862 48.4024C30.2932 49.1537 31.1167 50.0404 31.7059 50.3613C32.2574 50.6618 33.1457 50.767 33.7499 50.6033C34.2957 50.4554 34.9661 49.9706 35.2007 49.5541C35.6622 48.7347 35.3763 47.903 34.4154 47.27C33.9816 46.9841 33.8841 46.8855 34.0353 46.8855C34.544 46.8855 35.3399 47.3925 35.775 47.9939C36.3602 48.8027 35.9866 49.9993 34.9241 50.7192C34.1108 51.2702 33.173 51.4373 32.1362 51.2159C30.9807 50.9691 30.2046 50.4111 29.4399 49.2772C28.4986 47.8813 27.8377 47.6702 26.4895 48.3346C25.4233 48.8601 25.0439 49.6082 24.9219 51.4262C24.8198 52.947 24.6086 53.3588 23.9398 53.3412C23.5684 53.3315 23.0496 53.0891 22.2748 52.5635C21.985 52.3669 21.5195 52.1014 21.2405 51.9735C19.9915 51.401 18.1553 51.8956 17.7279 52.9195C17.5529 53.3389 17.5774 54.2537 17.7844 55.0332C18.0593 56.0679 18.0332 56.3979 17.6499 56.7348C17.1153 57.2046 16.8019 57.3288 16.1572 57.3264C15.4322 57.3237 14.6418 56.9792 13.9162 56.3497C13.332 55.8429 13.1303 55.8055 13.2129 56.2195C13.3701 57.0058 14.0851 57.6871 15.0739 57.9925C15.6882 58.1823 17.1766 58.2001 17.8543 58.0259C18.1151 57.9588 18.6437 57.714 19.029 57.482C19.9466 56.9291 20.1682 56.8363 20.571 56.8363C21.0975 56.8363 21.4893 57.1119 22.1286 57.9317C22.8335 58.8359 23.6042 59.4483 24.3414 59.6901C24.7735 59.8318 25.1304 59.8665 26.1452 59.8649C27.5225 59.8627 28.1868 59.7364 29.026 59.3164C29.9424 58.8579 30.2567 58.3858 30.2567 57.4679C30.2567 56.8313 30.1225 56.523 29.6728 56.1277C29.1643 55.6809 28.8191 55.5396 28.2236 55.535C27.2948 55.5279 26.7824 55.908 26.5439 56.781C26.4597 57.0892 26.4315 57.1164 26.3161 57.0009C26.0724 56.7569 26.064 56.2799 26.2973 55.9351C26.7975 55.196 27.8279 54.8067 28.7638 55.0032C29.4701 55.1516 29.8801 55.3688 30.3636 55.8509C30.9129 56.3985 30.9497 56.6218 30.7796 58.3688L30.6428 59.7735L31.7275 60.9764C33.8928 63.3776 35.2044 64.0975 37.1532 63.9546C38.5993 63.8485 39.4103 63.4248 39.8578 62.5412C40.1444 61.9757 40.1971 61.1187 39.9777 60.593C39.7903 60.1442 39.1395 59.4766 38.6445 59.2255C37.7904 58.7922 37.036 59.0127 36.6043 59.8216C36.3282 60.3391 36.3584 60.9795 36.675 61.3168C36.9809 61.6428 36.8313 61.6882 36.3609 61.4122C35.2407 60.755 35.5146 59.4324 36.8984 58.8158C37.5316 58.5337 38.5244 58.5373 39.1827 58.8241C39.7844 59.0863 40.3952 59.7526 40.644 60.4182C41.0755 61.5727 41.3517 61.9022 41.8883 61.9022C42.4245 61.9022 43.1516 61.0842 43.4522 60.1425C43.66 59.492 43.9502 59.3659 45.4686 59.2669C46.1198 59.2244 46.854 59.1226 47.0999 59.0408C47.6804 58.8478 48.2514 58.3132 48.7019 57.5411C49.1121 56.838 49.6659 56.3534 50.5219 55.9485C51.338 55.5624 51.7064 55.4805 52.6266 55.4799C53.328 55.4795 53.5126 55.4456 53.9212 55.2417C54.4884 54.9587 54.7435 54.5479 54.6027 54.1443C54.4058 53.5797 53.1267 53.0116 51.6617 52.838C50.9359 52.752 50.6055 52.7599 49.6614 52.8859C48.2343 53.0765 47.749 53.0757 47.1425 52.8822C46.4715 52.6682 45.8758 52.0396 45.3119 50.9508C44.4769 49.3382 43.8037 48.6928 42.7521 48.4971C42.2982 48.4126 42.0465 48.4281 41.0775 48.6003C39.2846 48.919 39.0557 48.7524 38.8454 46.976C38.7063 45.8018 38.6088 45.4671 38.2519 44.9394C37.3747 43.6426 35.3889 42.8992 33.5578 43.1822Z" fill="#6030B1"/>
<path d="M18.7837 32.1799C18.2767 32.0566 17.9244 32.035 17.1273 32.0784C15.1407 32.1866 14.2517 32.6598 13.5636 33.9754C13.2327 34.6081 13.2202 35.5832 13.5345 36.2363C13.8243 36.8381 14.4272 37.4805 14.9991 37.7966C16.3502 38.5434 18.1705 37.6398 17.9274 36.3429C17.8956 36.1731 17.7288 35.8497 17.557 35.6242C17.049 34.9581 17.1813 34.815 17.7934 35.3685C18.1639 35.7036 18.5999 36.4343 18.5999 36.7202C18.5999 36.9881 18.0477 37.7471 17.6618 38.0097C17.1409 38.3641 16.7686 38.4725 16.0726 38.4725C14.8399 38.4725 13.9056 37.9639 13.1643 36.8894C12.6664 36.1678 12.3205 35.9396 11.7246 35.9396C10.4389 35.9396 9.69021 36.7829 9.47596 38.4725C9.26126 40.1646 8.88941 40.5053 7.8918 39.9236C6.61678 39.1802 6.36728 39.0785 5.71287 39.0354C4.92454 38.9835 4.50977 39.1091 4.0257 39.5464C3.44846 40.0678 3.39632 40.282 3.60424 41.2765C3.81542 42.2867 3.82256 42.561 3.64626 42.9021C3.46508 43.2529 3.01218 43.3901 2.20912 43.3377C1.50908 43.2919 1.01217 43.0876 0.4952 42.6332C0.0922698 42.2791 -0.0539376 42.2803 0.0173591 42.6373C0.0915474 43.0086 0.312666 43.2862 0.798279 43.6174C1.95809 44.4083 3.17511 44.3587 5.06533 43.4436C5.47151 43.247 5.90769 43.0864 6.03456 43.0867C6.36611 43.0875 6.67479 43.3236 7.19501 43.9742C8.28732 45.3404 9.49729 45.7871 11.4216 45.5345C12.3932 45.407 12.8875 45.186 13.3244 44.6838C13.8062 44.1304 14.0281 43.5934 13.9125 43.2614C13.7612 42.8268 13.3694 42.3836 12.9616 42.186C12.1346 41.7853 11.348 42.0695 10.9083 42.9278C10.6576 43.4172 10.5252 43.3646 10.5796 42.7974C10.6161 42.4178 10.6781 42.2801 10.9038 42.0782C11.3163 41.7092 11.829 41.5968 12.5778 41.7111C14.1065 41.9444 14.732 42.923 14.3009 44.4075C14.1066 45.0763 14.2 45.3128 15.0765 46.3723C17.4644 49.2588 20.108 49.8534 21.5467 47.8277C22.0842 47.0709 22.0397 46.2039 21.4314 45.5768C20.1188 44.2237 18.167 45.0554 18.9676 46.6265C19.0705 46.8283 19.1313 47.0168 19.1028 47.0454C19.0276 47.1207 18.6056 46.7034 18.4457 46.3955C18.2673 46.0523 18.3321 45.3237 18.5641 45.0626C19.1746 44.3755 20.751 44.3672 21.6515 45.0463C22.0632 45.3569 22.2315 45.6462 22.3168 46.1907C22.4118 46.7967 22.5411 47.0301 22.8537 47.1597C23.4133 47.3917 24.2279 46.8148 24.5306 45.9722C24.8011 45.2193 24.9452 45.1401 26.1744 45.0701C26.9021 45.0286 27.3325 44.9605 27.5372 44.8545C27.7018 44.7694 28.3078 44.2135 28.8839 43.6193C30.1407 42.3231 30.4387 42.1545 31.8376 41.948C33.214 41.7449 33.4195 41.6199 33.4195 40.9861C33.4195 40.5852 32.9495 40.1788 32.235 39.9621C31.6337 39.7796 30.9571 39.7527 28.8109 39.8263C27.9583 39.8555 27.7025 39.8327 27.3863 39.6995C26.8865 39.4892 26.3915 38.9184 25.9173 38.0057C25.0969 36.4272 24.7854 36.2693 22.5797 36.3147C21.0906 36.3455 21.0305 36.3398 20.9975 36.1657C20.9786 36.0662 20.8982 35.5642 20.8187 35.0501C20.7393 34.536 20.4754 33.7307 20.4754 33.7307C20.1113 32.8488 19.7479 32.4985 18.7837 32.1799Z" fill="#6030B1"/>
<path d="M21.1269 18.9553L21.13 7.26307H47.1999L47.2532 5.81567H19.7909L19.7465 18.5482L19.772 29.0782H21.1269V18.9553Z" fill="#6030B1"/>
<path d="M73.2697 33.3614V59.4597H60.2485H50.7165V60.7699H61.0932L74.7155 60.8341V33.3249L73.2697 33.3614Z" fill="#6030B1"/>
<path fill-rule="evenodd" clip-rule="evenodd" d="M78.9172 11.1243C77.6726 11.3166 76.3416 11.916 75.8297 12.5145C75.6565 12.717 75.3851 13.1467 75.2266 13.4694C74.9638 14.0043 74.9384 14.1319 74.9384 14.9168C74.9384 15.724 74.9575 15.8127 75.2455 16.3445C75.6525 17.0959 76.4761 17.9825 77.0653 18.3035C77.6168 18.604 78.505 18.7091 79.1093 18.5455C79.6551 18.3976 80.3255 17.9128 80.5601 17.4963C81.0216 16.6769 80.7356 15.8452 79.7748 15.2121C79.341 14.9263 79.2435 14.8277 79.3947 14.8277C79.9034 14.8277 80.6993 15.3347 81.1344 15.9361C81.7196 16.7448 81.346 17.9415 80.2835 18.6614C79.4702 19.2124 78.5324 19.3794 77.4956 19.1581C76.3401 18.9113 75.564 18.3532 74.7993 17.2194C73.858 15.8235 73.1971 15.6123 71.8489 16.2768C70.7827 16.8023 70.4033 17.5504 70.2812 19.3684C70.1791 20.8892 69.9679 21.301 69.2992 21.2834C68.9278 21.2736 68.409 21.0313 67.6341 20.5057C67.3443 20.309 66.8789 20.0435 66.5998 19.9156C65.3509 19.3432 63.5147 19.8377 63.0873 20.8617C62.9123 21.2811 62.9368 22.1959 63.1438 22.9754C63.4187 24.01 63.3926 24.34 63.0092 24.677C62.4747 25.1468 62.1613 25.271 61.5165 25.2685C60.7916 25.2658 60.0011 24.9213 59.2755 24.2919C58.6914 23.785 58.4896 23.7477 58.5723 24.1616C58.7295 24.9479 59.4445 25.6293 60.4333 25.9347C61.0475 26.1245 62.5359 26.1423 63.2137 25.9681C63.4744 25.901 64.0031 25.6562 64.3884 25.4241C65.306 24.8712 65.5276 24.7785 65.9303 24.7785C66.4569 24.7785 66.8487 25.054 67.4879 25.8738C68.1928 26.7781 68.9636 27.3904 69.7007 27.6322C70.1329 27.774 70.4898 27.8086 71.5046 27.8071C72.8819 27.8049 73.5462 27.6785 74.3854 27.2586C75.3017 26.8001 75.6161 26.3279 75.6161 25.4101C75.6161 24.7734 75.4818 24.4651 75.0322 24.0699C74.5237 23.623 74.1784 23.4818 73.5829 23.4772C72.6542 23.4701 72.1418 23.8502 71.9033 24.7231C71.819 25.0313 71.7908 25.0586 71.6755 24.943C71.4317 24.6991 71.4233 24.2221 71.6567 23.8772C72.1569 23.1381 73.1872 22.7489 74.1231 22.9454C74.8295 23.0937 75.2395 23.3109 75.723 23.7931C76.2722 24.3407 76.3091 24.564 76.139 26.311L76.0021 27.7156L77.0869 28.9186C79.2522 31.3197 80.5638 32.0397 82.5126 31.8968C83.9586 31.7907 84.7696 31.367 85.2172 30.4834C85.5038 29.9178 85.5564 29.0609 85.337 28.5352C85.1497 28.0863 84.4989 27.4187 84.0039 27.1677C83.1498 26.7344 82.3953 26.9548 81.9637 27.7638C81.6875 28.2813 81.7178 28.9217 82.0343 29.259C82.3402 29.5849 82.1907 29.6303 81.7202 29.3543C80.6001 28.6971 80.874 27.3746 82.2578 26.758C82.891 26.4758 83.8837 26.4795 84.5421 26.7663C85.1438 27.0285 85.7546 27.6947 86.0034 28.3603C86.4349 29.5149 86.7111 29.8444 87.2477 29.8444C87.7839 29.8444 88.511 29.0263 88.8116 28.0846C89.0193 27.4342 89.3096 27.3081 90.828 27.209C91.4792 27.1665 92.2133 27.0647 92.4593 26.983C93.0398 26.7899 93.6108 26.2554 94.0613 25.4833C94.4714 24.7801 95.0253 24.2955 95.8813 23.8907C96.6973 23.5046 97.0658 23.4227 97.9859 23.4221C98.6874 23.4217 98.8719 23.3877 99.2806 23.1838C99.8478 22.9009 100.103 22.4901 99.9621 22.0864C99.7652 21.5219 98.4861 20.9538 97.0211 20.7802C96.2952 20.6941 95.9649 20.7021 95.0207 20.8281C93.5936 21.0186 93.1084 21.0179 92.5019 20.8244C91.8308 20.6104 91.2351 19.9817 90.6713 18.8929C89.8363 17.2804 89.163 16.635 88.1115 16.4392C87.6576 16.3548 87.4059 16.3702 86.4369 16.5425C84.644 16.8612 84.4151 16.6945 84.2048 14.9181C84.0657 13.7439 83.9682 13.4093 83.6113 12.8815C82.734 11.5848 80.7483 10.8414 78.9172 11.1243Z" fill="#6030B1"/>
<path d="M64.1431 0.122041C63.6361 -0.00125922 63.2838 -0.0228813 62.4867 0.0205406C60.5 0.128733 59.611 0.601941 58.923 1.91753C58.5921 2.55031 58.5795 3.52532 58.8939 4.17846C59.1836 4.7803 59.7865 5.42267 60.3584 5.73875C61.7095 6.4856 63.5298 5.58198 63.2868 4.28502C63.2549 4.11522 63.0882 3.79191 62.9164 3.56639C62.4084 2.90022 62.5407 2.75711 63.1527 3.31065C63.5232 3.64572 63.9592 4.37648 63.9592 4.66234C63.9592 4.93029 63.407 5.68926 63.0212 5.95187C62.5002 6.3063 62.128 6.41468 61.432 6.41468C60.1993 6.41468 59.265 5.9061 58.5237 4.83159C58.0258 4.10998 57.6799 3.88174 57.0839 3.88174C55.7982 3.88174 55.0496 4.72503 54.8353 6.41468C54.6206 8.10677 54.2488 8.44746 53.2512 7.86578C51.9762 7.12237 51.7267 7.02068 51.0722 6.97753C50.2839 6.9257 49.8691 7.05126 49.3851 7.48855C48.8078 8.00998 48.7557 8.22419 48.9636 9.21864C49.1748 10.2288 49.1819 10.5031 49.0056 10.8442C48.8245 11.1951 48.3716 11.3323 47.5685 11.2798C46.8685 11.2341 46.3715 11.0298 45.8546 10.5754C45.4516 10.2212 45.3054 10.2225 45.3767 10.5795C45.4509 10.9508 45.672 11.2284 46.1577 11.5595C47.3175 12.3504 48.5345 12.3009 50.4247 11.3858C50.8309 11.1892 51.2671 11.0285 51.3939 11.0289C51.7255 11.0297 52.0342 11.2658 52.5544 11.9164C53.6467 13.2826 54.8567 13.7293 56.781 13.4767C57.7525 13.3491 58.2469 13.1281 58.6838 12.626C59.1656 12.0725 59.3875 11.5356 59.2719 11.2036C59.1205 10.769 58.7287 10.3258 58.3209 10.1282C57.494 9.72749 56.7074 10.0116 56.2677 10.8699C56.017 11.3593 55.8845 11.3068 55.9389 10.7396C55.9755 10.36 56.0374 10.2222 56.2632 10.0203C56.6757 9.65141 57.1884 9.53897 57.9372 9.65322C59.4659 9.88653 60.0913 10.8651 59.6603 12.3496C59.466 13.0185 59.5594 13.255 60.4359 14.3145C62.8238 17.2009 65.4674 17.7955 66.9061 15.7698C67.4436 15.013 67.3991 14.146 66.7908 13.5189C65.4782 12.1659 63.5264 12.9975 64.327 14.5687C64.4298 14.7705 64.4907 14.959 64.4622 14.9876C64.3869 15.0629 63.9649 14.6456 63.8051 14.3377C63.6267 13.9945 63.6915 13.2658 63.9235 13.0048C64.5339 12.3177 66.1103 12.3094 67.0109 12.9885C67.4226 13.299 67.5908 13.5884 67.6762 14.1328C67.7711 14.7388 67.9004 14.9722 68.2131 15.1019C68.7727 15.3339 69.5872 14.757 69.89 13.9144C70.1604 13.1614 70.3046 13.0823 71.5338 13.0123C72.2615 12.9707 72.6919 12.9027 72.8965 12.7967C73.0612 12.7116 73.6672 12.1557 74.2433 11.5614C75.5001 10.2653 75.7981 10.0967 77.1969 9.89015C78.5733 9.68706 78.7788 9.56204 78.7788 8.92826C78.7788 8.52733 78.3089 8.12098 77.5943 7.90423C76.9931 7.72177 76.3165 7.6949 74.1703 7.76845C73.3177 7.79767 73.0619 7.77487 72.7456 7.64171C72.2459 7.43139 71.7509 6.86057 71.2767 5.9479C70.4563 4.36933 70.1448 4.21147 67.9391 4.25688C66.4499 4.28764 66.3898 4.28194 66.3569 4.10789C66.338 4.00839 66.2575 3.50632 66.1781 2.99222C66.0987 2.47813 65.8348 1.67284 65.8348 1.67284C65.4707 0.790966 65.1073 0.440641 64.1431 0.122041Z" fill="#6030B1"/>
</svg>
